<?xml version="1.0" encoding="UTF-8"?>
<!DOCTYPE svg PUBLIC "-//W3C//DTD SVG 1.1//EN" "http://www.w3.org/Graphics/SVG/1.1/DTD/svg11.dtd">
<svg xmlns="http://www.w3.org/2000/svg" version="1.1" width="338px" height="329px" style="shape-rendering:geometricPrecision; text-rendering:geometricPrecision; image-rendering:optimizeQuality; fill-rule:evenodd; clip-rule:evenodd" xmlns:xlink="http://www.w3.org/1999/xlink">
<g><path style="opacity:0.991" fill="#2b17cb" d="M 157.5,-0.5 C 158.167,-0.5 158.833,-0.5 159.5,-0.5C 183.468,22.6333 207.635,45.6333 232,68.5C 228.523,74.1581 224.023,79.1581 218.5,83.5C 218.19,81.8564 217.19,80.8564 215.5,80.5C 218.129,77.3694 220.962,74.3694 224,71.5C 224.667,70.5 224.667,69.5 224,68.5C 202.803,47.6351 181.303,27.1351 159.5,7C 158.833,6.33333 158.167,6.33333 157.5,7C 152.162,13.1971 146.496,19.0304 140.5,24.5C 140.279,23.2652 139.612,22.2652 138.5,21.5C 139.127,20.5832 139.461,19.5832 139.5,18.5C 143.566,15.4372 146.899,11.7706 149.5,7.5C 151.167,5.16667 153.167,3.16667 155.5,1.5C 156.5,1.16667 157.167,0.5 157.5,-0.5 Z"/></g>
<g><path style="opacity:0.349" fill="#130a34" d="M 155.5,-0.5 C 156.167,-0.5 156.833,-0.5 157.5,-0.5C 157.167,0.5 156.5,1.16667 155.5,1.5C 155.5,0.833333 155.5,0.166667 155.5,-0.5 Z"/></g>
<g><path style="opacity:0.529" fill="#1a1246" d="M 149.5,7.5 C 146.899,11.7706 143.566,15.4372 139.5,18.5C 142.101,14.2294 145.434,10.5628 149.5,7.5 Z"/></g>
<g><path style="opacity:0.976" fill="#2630c1" d="M 139.5,18.5 C 139.461,19.5832 139.127,20.5832 138.5,21.5C 139.612,22.2652 140.279,23.2652 140.5,24.5C 137.167,28.1667 133.833,31.8333 130.5,35.5C 128.801,35.4729 127.467,34.8062 126.5,33.5C 128.58,31.4268 130.246,29.0934 131.5,26.5C 133.833,23.5 136.5,20.8333 139.5,18.5 Z"/></g>
<g><path style="opacity:0.522" fill="#181945" d="M 131.5,26.5 C 130.246,29.0934 128.58,31.4268 126.5,33.5C 125.167,34.5 123.833,35.5 122.5,36.5C 124.766,32.5644 127.766,29.2311 131.5,26.5 Z"/></g>
<g><path style="opacity:0.964" fill="#2244bb" d="M 126.5,33.5 C 127.467,34.8062 128.801,35.4729 130.5,35.5C 124.167,42.1667 117.833,48.8333 111.5,55.5C 110.167,54.8333 108.833,54.1667 107.5,53.5C 110.57,50.4362 113.237,47.1029 115.5,43.5C 117.5,40.8333 119.833,38.5 122.5,36.5C 123.833,35.5 125.167,34.5 126.5,33.5 Z"/></g>
<g><path style="opacity:0.979" fill="#262fc4" d="M 215.5,80.5 C 217.19,80.8564 218.19,81.8564 218.5,83.5C 214.895,88.774 210.562,93.4407 205.5,97.5C 192.516,85.6834 179.683,73.6834 167,61.5C 160.618,63.8129 156.452,61.6463 154.5,55C 157.45,45.6304 162.616,44.1304 170,50.5C 171.459,53.1422 171.792,55.8089 171,58.5C 182.167,69 193.333,79.5 204.5,90C 205.167,90.6667 205.833,90.6667 206.5,90C 209.001,86.3329 212.001,83.1662 215.5,80.5 Z"/></g>
<g><path style="opacity:0.529" fill="#182149" d="M 115.5,43.5 C 113.237,47.1029 110.57,50.4362 107.5,53.5C 106.833,53.8333 106.167,54.1667 105.5,54.5C 108.101,50.2294 111.434,46.5628 115.5,43.5 Z"/></g>
<g><path style="opacity:0.965" fill="#1d4da5" d="M 107.5,53.5 C 108.833,54.1667 110.167,54.8333 111.5,55.5C 108.167,59.5 104.5,63.1667 100.5,66.5C 100.306,64.0882 98.9726,63.0882 96.5,63.5C 99.1667,60.1667 102.167,57.1667 105.5,54.5C 106.167,54.1667 106.833,53.8333 107.5,53.5 Z"/></g>
<g><path style="opacity:0.506" fill="#162842" d="M 96.5,63.5 C 94.2369,67.1029 91.5703,70.4362 88.5,73.5C 88.1667,73.5 87.8333,73.5 87.5,73.5C 89.7657,69.5644 92.7657,66.2311 96.5,63.5 Z"/></g>
<g><path style="opacity:0.92" fill="#1b67b9" d="M 96.5,63.5 C 98.9726,63.0882 100.306,64.0882 100.5,66.5C 97.8333,69.8333 94.8333,72.8333 91.5,75.5C 90.5,74.8333 89.5,74.1667 88.5,73.5C 91.5703,70.4362 94.2369,67.1029 96.5,63.5 Z"/></g>
<g><path style="opacity:0.954" fill="#1866a0" d="M 87.5,73.5 C 87.8333,73.5 88.1667,73.5 88.5,73.5C 89.5,74.1667 90.5,74.8333 91.5,75.5C 89.2343,79.4356 86.2343,82.7689 82.5,85.5C 81.4019,84.603 81.4019,83.7697 82.5,83C 81.552,82.5172 80.552,82.3505 79.5,82.5C 79.5,82.1667 79.5,81.8333 79.5,81.5C 81.8333,78.5 84.5,75.8333 87.5,73.5 Z"/></g>
<g><path style="opacity:0.994" fill="#03c576" d="M 254.5,89.5 C 256.833,93.8333 260.167,97.1667 264.5,99.5C 267.5,102.167 270.5,104.833 273.5,107.5C 275.833,111.833 279.167,115.167 283.5,117.5C 286.833,120.5 290.167,123.5 293.5,126.5C 295.5,130.5 298.5,133.5 302.5,135.5C 305.833,138.5 309.167,141.5 312.5,144.5C 314.167,148.167 316.833,150.833 320.5,152.5C 322.296,153.793 323.963,155.293 325.5,157C 322.933,159.396 320.6,161.896 318.5,164.5C 317.041,164.567 315.708,164.234 314.5,163.5C 315.458,162.038 316.624,160.705 318,159.5C 318.74,158.251 318.573,157.251 317.5,156.5C 308.568,149.071 300.068,141.071 292,132.5C 291.617,133.056 291.117,133.389 290.5,133.5C 289.391,133.443 288.391,133.11 287.5,132.5C 288.686,131.039 288.686,129.705 287.5,128.5C 275.672,116.839 263.672,105.339 251.5,94C 250.552,93.5172 249.552,93.3505 248.5,93.5C 245.366,92.8924 244.699,91.2258 246.5,88.5C 247.145,87.1882 248.145,86.1882 249.5,85.5C 251.186,86.8569 252.852,88.1902 254.5,89.5 Z"/></g>
<g><path style="opacity:0.533" fill="#142f3f" d="M 79.5,81.5 C 79.5,81.8333 79.5,82.1667 79.5,82.5C 76.1667,86.1667 72.8333,89.8333 69.5,93.5C 68.8333,93.8333 68.1667,94.1667 67.5,94.5C 70.7703,89.5603 74.7703,85.2269 79.5,81.5 Z"/></g>
<g><path style="opacity:0.914" fill="#167caa" d="M 79.5,82.5 C 80.552,82.3505 81.552,82.5172 82.5,83C 81.4019,83.7697 81.4019,84.603 82.5,85.5C 78.8051,89.5259 75.1384,93.5259 71.5,97.5C 71.8432,95.5168 71.1765,94.1834 69.5,93.5C 72.8333,89.8333 76.1667,86.1667 79.5,82.5 Z"/></g>
<g><path style="opacity:0.294" fill="#06603a" d="M 254.5,89.5 C 258.167,92.5 261.5,95.8333 264.5,99.5C 260.167,97.1667 256.833,93.8333 254.5,89.5 Z"/></g>
<g><path style="opacity:0.93" fill="#137b95" d="M 69.5,93.5 C 71.1765,94.1834 71.8432,95.5168 71.5,97.5C 68.5,101.167 65.1667,104.5 61.5,107.5C 62.027,105.643 62.027,103.643 61.5,101.5C 61.5,101.167 61.5,100.833 61.5,100.5C 63.1667,98.1667 65.1667,96.1667 67.5,94.5C 68.1667,94.1667 68.8333,93.8333 69.5,93.5 Z"/></g>
<g><path style="opacity:0.977" fill="#196db1" d="M 113.5,114.5 C 111.928,113.313 110.261,112.313 108.5,111.5C 105.968,104.856 108.135,100.522 115,98.5C 121.651,99.8214 124.318,103.821 123,110.5C 120.561,114.134 117.395,115.467 113.5,114.5 Z"/></g>
<g><path style="opacity:0.979" fill="#1c61b7" d="M 136.5,117.5 C 134.856,117.19 133.856,116.19 133.5,114.5C 130.027,105.126 133.36,100.626 143.5,101C 149.752,106.357 149.419,111.357 142.5,116C 140.414,116.315 138.414,116.815 136.5,117.5 Z"/></g>
<g><path style="opacity:0.565" fill="#143337" d="M 61.5,100.5 C 61.5,100.833 61.5,101.167 61.5,101.5C 57.5,106.167 53.1667,110.5 48.5,114.5C 48.7086,113.078 49.2086,111.745 50,110.5C 54.0008,107.331 57.8341,103.997 61.5,100.5 Z"/></g>
<g><path style="opacity:0.985" fill="#1481a4" d="M 89.5,120.5 C 86.3957,117.899 83.3957,115.066 80.5,112C 79.552,111.517 78.552,111.351 77.5,111.5C 77.8588,109.629 78.8588,108.129 80.5,107C 87.3025,105.227 91.3025,107.727 92.5,114.5C 92.5328,117.102 91.5328,119.102 89.5,120.5 Z"/></g>
<g><path style="opacity:0.263" fill="#065e39" d="M 273.5,107.5 C 277.167,110.5 280.5,113.833 283.5,117.5C 279.167,115.167 275.833,111.833 273.5,107.5 Z"/></g>
<g><path style="opacity:1" fill="#09b080" d="M 246.5,88.5 C 244.699,91.2258 245.366,92.8924 248.5,93.5C 242.203,101.133 235.536,108.466 228.5,115.5C 227.167,115.5 225.833,115.5 224.5,115.5C 224.5,114.167 224.5,112.833 224.5,111.5C 220.629,111.185 216.962,111.518 213.5,112.5C 212.167,112.167 210.833,111.833 209.5,111.5C 209.953,110.542 210.619,109.708 211.5,109C 213.708,108.809 215.708,108.309 217.5,107.5C 221.49,107.001 225.49,106.501 229.5,106C 235.397,100.271 241.064,94.4381 246.5,88.5 Z"/></g>
<g><path style="opacity:0.978" fill="#138ba3" d="M 77.5,111.5 C 78.552,111.351 79.552,111.517 80.5,112C 83.3957,115.066 86.3957,117.899 89.5,120.5C 86.9039,122.626 84.0705,122.959 81,121.5C 78.295,124.036 75.795,126.703 73.5,129.5C 72.1667,128.833 70.8333,128.167 69.5,127.5C 72.0398,124.272 74.7065,121.105 77.5,118C 76.1888,115.726 76.1888,113.56 77.5,111.5 Z"/></g>
<g><path style="opacity:0.988" fill="#2050c0" d="M 175.5,131.5 C 173.81,131.144 172.81,130.144 172.5,128.5C 173.476,127.185 174.476,125.852 175.5,124.5C 173.646,117.887 176.146,113.887 183,112.5C 189.442,114.046 191.775,118.046 190,124.5C 187.031,127.954 183.198,129.454 178.5,129C 177.627,130.045 176.627,130.878 175.5,131.5 Z"/></g>
<g><path style="opacity:0.982" fill="#0c9d8d" d="M 209.5,111.5 C 210.833,111.833 212.167,112.167 213.5,112.5C 208.833,117.833 203.833,122.833 198.5,127.5C 196.597,127.204 194.93,126.537 193.5,125.5C 199.11,121.228 204.443,116.562 209.5,111.5 Z"/></g>
<g><path style="opacity:0.893" fill="#15769e" d="M 108.5,111.5 C 110.261,112.313 111.928,113.313 113.5,114.5C 107.89,118.772 102.557,123.438 97.5,128.5C 96.5,127.5 95.5,126.5 94.5,125.5C 98.8333,120.5 103.5,115.833 108.5,111.5 Z"/></g>
<g><path style="opacity:0.089" fill="#0c1412" d="M 42.5,120.5 C 42.1667,121.167 41.8333,121.833 41.5,122.5C 38.1395,125.194 35.1395,128.194 32.5,131.5C 34.4416,126.559 37.7749,122.892 42.5,120.5 Z"/></g>
<g><path style="opacity:0.915" fill="#109090" d="M 61.5,101.5 C 62.027,103.643 62.027,105.643 61.5,107.5C 56.287,113.924 50.6203,119.924 44.5,125.5C 43.8333,124.167 42.8333,123.167 41.5,122.5C 41.8333,121.833 42.1667,121.167 42.5,120.5C 44.1667,118.167 46.1667,116.167 48.5,114.5C 53.1667,110.5 57.5,106.167 61.5,101.5 Z"/></g>
<g><path style="opacity:0.525" fill="#0c6d63" d="M 217.5,107.5 C 215.708,108.309 213.708,108.809 211.5,109C 210.619,109.708 209.953,110.542 209.5,111.5C 204.443,116.562 199.11,121.228 193.5,125.5C 198.964,119.535 204.63,113.702 210.5,108C 212.81,107.503 215.143,107.337 217.5,107.5 Z"/></g>
<g><path style="opacity:0.899" fill="#176aa0" d="M 133.5,114.5 C 133.856,116.19 134.856,117.19 136.5,117.5C 131.954,123.256 126.954,128.59 121.5,133.5C 120.833,132.167 119.833,131.167 118.5,130.5C 122.795,124.537 127.795,119.204 133.5,114.5 Z"/></g>
<g><path style="opacity:1" fill="#0b9781" d="M 213.5,112.5 C 216.962,111.518 220.629,111.185 224.5,111.5C 224.5,112.833 224.5,114.167 224.5,115.5C 225.833,115.5 227.167,115.5 228.5,115.5C 223.5,121.167 218.167,126.5 212.5,131.5C 211.325,131.719 210.325,131.386 209.5,130.5C 210.456,128.925 211.123,127.258 211.5,125.5C 215.296,121.202 219.296,117.036 223.5,113C 220.183,112.502 216.85,112.335 213.5,112.5 Z"/></g>
<g><path style="opacity:0.956" fill="#0f8a8c" d="M 193.5,125.5 C 194.93,126.537 196.597,127.204 198.5,127.5C 196.167,130.5 193.5,133.167 190.5,135.5C 189.71,134.599 188.71,133.932 187.5,133.5C 187.5,132.833 187.5,132.167 187.5,131.5C 189.861,129.806 191.861,127.806 193.5,125.5 Z"/></g>
<g><path style="opacity:0.275" fill="#065e39" d="M 293.5,126.5 C 296.833,129.167 299.833,132.167 302.5,135.5C 298.5,133.5 295.5,130.5 293.5,126.5 Z"/></g>
<g><path style="opacity:0.883" fill="#147999" d="M 118.5,130.5 C 119.833,131.167 120.833,132.167 121.5,133.5C 116.805,138.526 112.139,143.526 107.5,148.5C 107.912,146.027 106.912,144.694 104.5,144.5C 108.833,139.5 113.5,134.833 118.5,130.5 Z"/></g>
<g><path style="opacity:0.616" fill="#057f52" d="M 287.5,128.5 C 288.686,129.705 288.686,131.039 287.5,132.5C 284.167,135.5 280.833,138.5 277.5,141.5C 277.5,141.167 277.5,140.833 277.5,140.5C 281.233,136.773 284.566,132.773 287.5,128.5 Z"/></g>
<g><path style="opacity:0.854" fill="#0e948f" d="M 69.5,127.5 C 70.8333,128.167 72.1667,128.833 73.5,129.5C 69.8333,133.833 65.8333,137.833 61.5,141.5C 60.0813,140.549 58.4147,140.216 56.5,140.5C 60.5,135.833 64.8333,131.5 69.5,127.5 Z"/></g>
<g><path style="opacity:0.953" fill="#0d9f80" d="M 41.5,122.5 C 42.8333,123.167 43.8333,124.167 44.5,125.5C 38.7221,132.066 32.7221,138.4 26.5,144.5C 26.1898,142.856 25.1898,141.856 23.5,141.5C 23.5,141.167 23.5,140.833 23.5,140.5C 26.1667,137.167 29.1667,134.167 32.5,131.5C 35.1395,128.194 38.1395,125.194 41.5,122.5 Z"/></g>
<g><path style="opacity:0.912" fill="#1b5ca8" d="M 172.5,128.5 C 172.81,130.144 173.81,131.144 175.5,131.5C 171.723,136.065 167.723,140.398 163.5,144.5C 162.5,143.5 161.5,142.5 160.5,141.5C 163.792,136.54 167.792,132.207 172.5,128.5 Z"/></g>
<g><path style="opacity:1" fill="#10878b" d="M 211.5,125.5 C 211.123,127.258 210.456,128.925 209.5,130.5C 210.325,131.386 211.325,131.719 212.5,131.5C 205.868,139.799 198.535,147.466 190.5,154.5C 189.962,152.883 189.629,151.216 189.5,149.5C 196.493,141.174 203.826,133.174 211.5,125.5 Z"/></g>
<g><path style="opacity:0.084" fill="#0d1612" d="M 23.5,140.5 C 23.5,140.833 23.5,141.167 23.5,141.5C 19.4729,144.86 15.8062,148.527 12.5,152.5C 14.7774,147.223 18.4441,143.223 23.5,140.5 Z"/></g>
<g><path style="opacity:0.969" fill="#1680af" d="M 134.5,151.5 C 130.91,150.372 127.577,148.705 124.5,146.5C 124.313,138.853 127.98,135.686 135.5,137C 141.794,142.316 141.46,147.149 134.5,151.5 Z"/></g>
<g><path style="opacity:0.951" fill="#118d96" d="M 94.5,125.5 C 95.5,126.5 96.5,127.5 97.5,128.5C 92.7419,134.763 87.4086,140.596 81.5,146C 89.3381,147.018 97.0048,146.518 104.5,144.5C 106.912,144.694 107.912,146.027 107.5,148.5C 107.047,149.458 106.381,150.292 105.5,151C 96.8397,151.5 88.1731,151.666 79.5,151.5C 79.9515,148.899 78.6181,147.232 75.5,146.5C 81.4636,139.201 87.797,132.201 94.5,125.5 Z"/></g>
<g><path style="opacity:0.455" fill="#0f5362" d="M 187.5,131.5 C 187.5,132.167 187.5,132.833 187.5,133.5C 183.167,137.167 179.167,141.167 175.5,145.5C 172.838,147.268 169.838,147.935 166.5,147.5C 168.292,146.691 170.292,146.191 172.5,146C 177.369,140.963 182.369,136.13 187.5,131.5 Z"/></g>
<g><path style="opacity:1" fill="#128297" d="M 187.5,133.5 C 188.71,133.932 189.71,134.599 190.5,135.5C 186.167,140.5 181.5,145.167 176.5,149.5C 176.768,147.901 176.434,146.568 175.5,145.5C 179.167,141.167 183.167,137.167 187.5,133.5 Z"/></g>
<g><path style="opacity:0.416" fill="#08513b" d="M 277.5,140.5 C 277.5,140.833 277.5,141.167 277.5,141.5C 276.71,142.794 275.71,143.961 274.5,145C 271.183,145.498 267.85,145.665 264.5,145.5C 267.305,144.681 270.305,144.181 273.5,144C 274.705,142.624 276.038,141.458 277.5,140.5 Z"/></g>
<g><path style="opacity:0.416" fill="#0a6956" d="M 264.5,145.5 C 259.695,146.487 254.695,146.821 249.5,146.5C 241.833,146.5 234.167,146.5 226.5,146.5C 238.372,145.815 250.372,145.148 262.5,144.5C 263.183,144.863 263.85,145.196 264.5,145.5 Z"/></g>
<g><path style="opacity:0.255" fill="#065a36" d="M 312.5,144.5 C 315.5,146.833 318.167,149.5 320.5,152.5C 316.833,150.833 314.167,148.167 312.5,144.5 Z"/></g>
<g><path style="opacity:0.916" fill="#186ead" d="M 160.5,141.5 C 161.5,142.5 162.5,143.5 163.5,144.5C 160.5,148.167 157.167,151.5 153.5,154.5C 153.267,152.938 152.6,151.605 151.5,150.5C 154.167,147.167 157.167,144.167 160.5,141.5 Z"/></g>
<g><path style="opacity:0.975" fill="#07c18c" d="M 287.5,132.5 C 288.391,133.11 289.391,133.443 290.5,133.5C 284.891,140.778 278.558,147.444 271.5,153.5C 270.833,152.5 270.167,151.5 269.5,150.5C 263.355,149.51 257.022,149.177 250.5,149.5C 249.89,148.609 249.557,147.609 249.5,146.5C 254.695,146.821 259.695,146.487 264.5,145.5C 267.85,145.665 271.183,145.498 274.5,145C 275.71,143.961 276.71,142.794 277.5,141.5C 280.833,138.5 284.167,135.5 287.5,132.5 Z"/></g>
<g><path style="opacity:1" fill="#157ca7" d="M 175.5,145.5 C 176.434,146.568 176.768,147.901 176.5,149.5C 176.895,153.464 175.561,156.964 172.5,160C 163.963,161.294 160.963,157.794 163.5,149.5C 164.357,148.575 165.357,147.908 166.5,147.5C 169.838,147.935 172.838,147.268 175.5,145.5 Z"/></g>
<g><path style="opacity:1" fill="#0cac97" d="M 226.5,146.5 C 234.167,146.5 241.833,146.5 249.5,146.5C 249.557,147.609 249.89,148.609 250.5,149.5C 250.5,149.833 250.5,150.167 250.5,150.5C 247.5,150.5 244.5,150.5 241.5,150.5C 234.833,150.5 228.167,150.5 221.5,150.5C 220.094,150.027 219.427,149.027 219.5,147.5C 221.706,146.028 224.039,145.695 226.5,146.5 Z"/></g>
<g><path style="opacity:0.337" fill="#086753" d="M 250.5,150.5 C 250.5,150.167 250.5,149.833 250.5,149.5C 257.022,149.177 263.355,149.51 269.5,150.5C 264.86,155.806 259.86,160.806 254.5,165.5C 258.233,160.26 262.566,155.426 267.5,151C 261.843,150.501 256.176,150.334 250.5,150.5 Z"/></g>
<g><path style="opacity:0.935" fill="#07b87e" d="M 23.5,141.5 C 25.1898,141.856 26.1898,142.856 26.5,144.5C 21.4721,149.86 16.4721,155.193 11.5,160.5C 10.5313,159.691 9.69794,158.691 9,157.5C 8.32924,158.252 7.4959,158.586 6.5,158.5C 8.16667,156.167 10.1667,154.167 12.5,152.5C 15.8062,148.527 19.4729,144.86 23.5,141.5 Z"/></g>
<g><path style="opacity:0.012" fill="#093733" d="M 221.5,150.5 C 228.167,150.5 234.833,150.5 241.5,150.5C 234.933,151.201 228.267,151.868 221.5,152.5C 221.5,151.833 221.5,151.167 221.5,150.5 Z"/></g>
<g><path style="opacity:0.994" fill="#0bb395" d="M 269.5,150.5 C 270.167,151.5 270.833,152.5 271.5,153.5C 271.315,155.196 270.481,156.529 269,157.5C 269.068,159.342 268.901,161.009 268.5,162.5C 268.83,168.868 268.496,175.202 267.5,181.5C 266.482,180.807 265.482,180.141 264.5,179.5C 264.829,173.794 264.495,168.128 263.5,162.5C 262.893,162.624 262.56,162.957 262.5,163.5C 260.167,166.5 257.5,169.167 254.5,171.5C 253.325,171.719 252.325,171.386 251.5,170.5C 252.952,169.06 253.952,167.394 254.5,165.5C 259.86,160.806 264.86,155.806 269.5,150.5 Z"/></g>
<g><path style="opacity:1" fill="#137f9a" d="M 124.5,146.5 C 127.577,148.705 130.91,150.372 134.5,151.5C 132.777,152.807 130.943,152.807 129,151.5C 125.964,154.704 122.797,157.704 119.5,160.5C 118.817,158.824 117.483,158.157 115.5,158.5C 118.129,155.369 120.962,152.369 124,149.5C 124.483,148.552 124.649,147.552 124.5,146.5 Z"/></g>
<g><path style="opacity:0.977" fill="#0ca88f" d="M 56.5,140.5 C 58.4147,140.216 60.0813,140.549 61.5,141.5C 61.5,141.833 61.5,142.167 61.5,142.5C 60.3467,148.653 60.18,154.986 61,161.5C 61.7172,160.956 62.2172,160.289 62.5,159.5C 66.5,154.833 70.8333,150.5 75.5,146.5C 78.6181,147.232 79.9515,148.899 79.5,151.5C 78.448,151.351 77.448,151.517 76.5,152C 69.8014,158.364 63.4681,165.031 57.5,172C 65.4931,172.5 73.4931,172.666 81.5,172.5C 89.1739,172.334 96.8406,172.5 104.5,173C 105.252,173.671 105.586,174.504 105.5,175.5C 91.6984,177.084 77.6984,177.75 63.5,177.5C 64.6085,176.71 65.9419,176.21 67.5,176C 67.0426,175.586 66.7093,175.086 66.5,174.5C 62.8776,173.675 59.211,173.175 55.5,173C 55.9574,172.586 56.2907,172.086 56.5,171.5C 55.3112,170.571 53.9778,170.238 52.5,170.5C 53.4577,169.038 54.6244,167.705 56,166.5C 56.4194,157.591 56.586,148.924 56.5,140.5 Z"/></g>
<g><path style="opacity:0.455" fill="#096758" d="M 61.5,142.5 C 61.1778,148.358 61.5111,154.025 62.5,159.5C 62.2172,160.289 61.7172,160.956 61,161.5C 60.18,154.986 60.3467,148.653 61.5,142.5 Z"/></g>
<g><path style="opacity:0.898" fill="#15709a" d="M 151.5,150.5 C 152.6,151.605 153.267,152.938 153.5,154.5C 151.212,158.456 148.212,161.789 144.5,164.5C 144.144,162.81 143.144,161.81 141.5,161.5C 144.123,157.209 147.456,153.543 151.5,150.5 Z"/></g>
<g><path style="opacity:0.964" fill="#11818a" d="M 219.5,147.5 C 219.427,149.027 220.094,150.027 221.5,150.5C 221.5,151.167 221.5,151.833 221.5,152.5C 217.5,157.167 213.167,161.5 208.5,165.5C 207.5,165.5 206.5,165.5 205.5,165.5C 205.5,164.5 205.5,163.5 205.5,162.5C 209.461,156.871 214.127,151.871 219.5,147.5 Z"/></g>
<g><path style="opacity:0.096" fill="#0d1611" d="M 5.5,159.5 C 3.80363,161.525 2.13696,163.525 0.5,165.5C 0.166667,165.5 -0.166667,165.5 -0.5,165.5C -0.5,165.167 -0.5,164.833 -0.5,164.5C 0.88507,162.117 2.88507,160.45 5.5,159.5 Z"/></g>
<g><path style="opacity:1" fill="#147496" d="M 189.5,149.5 C 189.629,151.216 189.962,152.883 190.5,154.5C 187.23,159.44 183.23,163.773 178.5,167.5C 178.262,165.596 177.262,164.262 175.5,163.5C 179.833,158.5 184.5,153.833 189.5,149.5 Z"/></g>
<g><path style="opacity:0.978" fill="#03c376" d="M 11.5,160.5 C 10.5423,161.962 9.37561,163.295 8,164.5C 7.33333,165.167 7.33333,165.833 8,166.5C 16.3906,174.396 24.8906,182.063 33.5,189.5C 34.4959,189.586 35.3292,189.252 36,188.5C 36.6979,189.691 37.5313,190.691 38.5,191.5C 37.6971,192.423 37.5304,193.423 38,194.5C 49.9295,205.885 61.7629,217.385 73.5,229C 74.5,229.667 75.5,229.667 76.5,229C 79.3714,226.297 82.0381,223.464 84.5,220.5C 86.7812,220.077 88.4479,220.744 89.5,222.5C 84.8698,227.631 80.0365,232.631 75,237.5C 49.6637,213.997 24.8303,189.997 0.5,165.5C 2.13696,163.525 3.80363,161.525 5.5,159.5C 5.5,158.833 5.83333,158.5 6.5,158.5C 7.4959,158.586 8.32924,158.252 9,157.5C 9.69794,158.691 10.5313,159.691 11.5,160.5 Z"/></g>
<g><path style="opacity:0.963" fill="#06bc80" d="M 314.5,163.5 C 315.708,164.234 317.041,164.567 318.5,164.5C 313.167,170.5 307.5,176.167 301.5,181.5C 301.167,180.5 300.5,179.833 299.5,179.5C 300.11,178.609 300.443,177.609 300.5,176.5C 305.167,172.167 309.833,167.833 314.5,163.5 Z"/></g>
<g><path style="opacity:0.965" fill="#167daa" d="M 157.5,175.5 C 153.662,173.663 151.329,170.663 150.5,166.5C 151.033,163.475 152.867,162.142 156,162.5C 163.259,164.61 164.759,168.776 160.5,175C 159.552,175.483 158.552,175.649 157.5,175.5 Z"/></g>
<g><path style="opacity:0.853" fill="#0f8688" d="M 115.5,158.5 C 117.483,158.157 118.817,158.824 119.5,160.5C 114.805,165.526 110.139,170.526 105.5,175.5C 105.586,174.504 105.252,173.671 104.5,173C 96.8406,172.5 89.1739,172.334 81.5,172.5C 88.6552,171.671 95.9885,171.171 103.5,171C 107.401,166.663 111.401,162.496 115.5,158.5 Z"/></g>
<g><path style="opacity:1" fill="#166295" d="M 175.5,163.5 C 177.262,164.262 178.262,165.596 178.5,167.5C 175.138,171.192 171.805,174.859 168.5,178.5C 168.688,176.897 168.188,175.563 167,174.5C 164.234,177.777 161.067,180.443 157.5,182.5C 163.528,176.14 169.528,169.807 175.5,163.5 Z"/></g>
<g><path style="opacity:0.122" fill="#084239" d="M 262.5,163.5 C 262.56,162.957 262.893,162.624 263.5,162.5C 264.495,168.128 264.829,173.794 264.5,179.5C 263.833,174.167 263.167,168.833 262.5,163.5 Z"/></g>
<g><path style="opacity:0.899" fill="#128295" d="M 141.5,161.5 C 143.144,161.81 144.144,162.81 144.5,164.5C 139.139,170.193 133.805,175.86 128.5,181.5C 126.277,180.819 124.944,179.819 124.5,178.5C 129.833,172.5 135.5,166.833 141.5,161.5 Z"/></g>
<g><path style="opacity:1" fill="#157ea5" d="M 205.5,162.5 C 205.5,163.5 205.5,164.5 205.5,165.5C 206.5,165.5 207.5,165.5 208.5,165.5C 206.008,168.469 203.508,171.469 201,174.5C 201.665,176.863 201.498,179.196 200.5,181.5C 199.577,182.303 198.577,182.47 197.5,182C 194.65,179.318 191.984,176.484 189.5,173.5C 189.709,172.914 190.043,172.414 190.5,172C 193.036,171.814 195.369,171.314 197.5,170.5C 199.833,167.5 202.5,164.833 205.5,162.5 Z"/></g>
<g><path style="opacity:0.435" fill="#076e4b" d="M 317.5,156.5 C 318.573,157.251 318.74,158.251 318,159.5C 316.624,160.705 315.458,162.038 314.5,163.5C 309.833,167.833 305.167,172.167 300.5,176.5C 306.167,169.833 311.833,163.167 317.5,156.5 Z"/></g>
<g><path style="opacity:0.959" fill="#109799" d="M 254.5,165.5 C 253.952,167.394 252.952,169.06 251.5,170.5C 252.325,171.386 253.325,171.719 254.5,171.5C 248.869,178.798 242.536,185.465 235.5,191.5C 234.522,191.189 233.855,190.522 233.5,189.5C 234.952,188.06 235.952,186.394 236.5,184.5C 239.479,182.188 242.146,179.521 244.5,176.5C 236.608,175.186 228.775,175.186 221,176.5C 219.383,175.464 219.216,174.297 220.5,173C 224.688,172.824 228.688,172.324 232.5,171.5C 237.844,171.666 243.177,171.499 248.5,171C 250.37,168.96 252.37,167.127 254.5,165.5 Z"/></g>
<g><path style="opacity:0.958" fill="#08bc87" d="M 52.5,170.5 C 53.9778,170.238 55.3112,170.571 56.5,171.5C 56.2907,172.086 55.9574,172.586 55.5,173C 59.211,173.175 62.8776,173.675 66.5,174.5C 66.7093,175.086 67.0426,175.586 67.5,176C 65.9419,176.21 64.6085,176.71 63.5,177.5C 59.0848,177.305 54.7514,177.805 50.5,179C 46.9973,183.669 42.9973,187.836 38.5,191.5C 37.5313,190.691 36.6979,189.691 36,188.5C 35.3292,189.252 34.4959,189.586 33.5,189.5C 39.5,182.833 45.8333,176.5 52.5,170.5 Z"/></g>
<g><path style="opacity:0.991" fill="#1671a0" d="M 197.5,170.5 C 195.369,171.314 193.036,171.814 190.5,172C 190.043,172.414 189.709,172.914 189.5,173.5C 191.984,176.484 194.65,179.318 197.5,182C 198.577,182.47 199.577,182.303 200.5,181.5C 199.351,185.003 196.851,186.669 193,186.5C 186.156,185.293 183.823,181.293 186,174.5C 188.944,170.886 192.777,169.553 197.5,170.5 Z"/></g>
<g><path style="opacity:0.891" fill="#137893" d="M 150.5,166.5 C 151.329,170.663 153.662,173.663 157.5,175.5C 156.458,176.791 155.292,176.791 154,175.5C 151.297,178.371 148.464,181.038 145.5,183.5C 144.892,180.366 143.226,179.699 140.5,181.5C 143.129,178.369 145.962,175.369 149,172.5C 149.191,170.292 149.691,168.292 150.5,166.5 Z"/></g>
<g><path style="opacity:0.378" fill="#0e6269" d="M 232.5,171.5 C 228.688,172.324 224.688,172.824 220.5,173C 219.216,174.297 219.383,175.464 221,176.5C 228.775,175.186 236.608,175.186 244.5,176.5C 242.146,179.521 239.479,182.188 236.5,184.5C 237.882,181.606 239.882,179.106 242.5,177C 237.167,176.333 231.833,176.333 226.5,177C 223.849,177.153 221.516,177.987 219.5,179.5C 219.446,177.368 218.446,176.035 216.5,175.5C 217.29,174.206 218.29,173.039 219.5,172C 223.821,171.501 228.154,171.334 232.5,171.5 Z"/></g>
<g><path style="opacity:1" fill="#14799a" d="M 216.5,175.5 C 218.446,176.035 219.446,177.368 219.5,179.5C 216.5,183.167 213.167,186.5 209.5,189.5C 208.206,190.29 207.039,191.29 206,192.5C 205.626,191.584 205.126,190.75 204.5,190C 206.141,188.871 207.141,187.371 207.5,185.5C 210.529,182.141 213.529,178.808 216.5,175.5 Z"/></g>
<g><path style="opacity:1" fill="#195ea4" d="M 168.5,178.5 C 165.833,181.833 162.833,184.833 159.5,187.5C 159.306,185.088 157.973,184.088 155.5,184.5C 155.833,183.5 156.5,182.833 157.5,182.5C 161.067,180.443 164.234,177.777 167,174.5C 168.188,175.563 168.688,176.897 168.5,178.5 Z"/></g>
<g><path style="opacity:1" fill="#1b51a3" d="M 155.5,184.5 C 157.973,184.088 159.306,185.088 159.5,187.5C 156.502,190.667 153.669,194 151,197.5C 150.817,200.365 150.317,203.031 149.5,205.5C 149.219,202.183 149.219,199.017 149.5,196C 145.446,195.306 141.446,195.473 137.5,196.5C 138.871,194.859 140.704,193.859 143,193.5C 144.162,194.187 145.328,194.353 146.5,194C 149.732,190.938 152.732,187.771 155.5,184.5 Z"/></g>
<g><path style="opacity:0.933" fill="#0f8380" d="M 268.5,162.5 C 269.654,168.987 269.821,175.654 269,182.5C 263.996,188.67 258.496,194.337 252.5,199.5C 252.5,197.5 251.5,196.5 249.5,196.5C 254.128,190.537 259.128,184.87 264.5,179.5C 265.482,180.141 266.482,180.807 267.5,181.5C 268.496,175.202 268.83,168.868 268.5,162.5 Z"/></g>
<g><path style="opacity:0.922" fill="#0caa90" d="M 299.5,179.5 C 300.5,179.833 301.167,180.5 301.5,181.5C 295.869,188.798 289.536,195.465 282.5,201.5C 281.522,201.189 280.855,200.522 280.5,199.5C 281.952,198.06 282.952,196.394 283.5,194.5C 288.833,189.5 294.167,184.5 299.5,179.5 Z"/></g>
<g><path style="opacity:0.874" fill="#10888b" d="M 145.5,183.5 C 140.167,189.5 134.5,195.167 128.5,200.5C 127.448,198.744 125.781,198.077 123.5,198.5C 128.833,192.5 134.5,186.833 140.5,181.5C 143.226,179.699 144.892,180.366 145.5,183.5 Z"/></g>
<g><path style="opacity:1" fill="#145f87" d="M 207.5,185.5 C 207.141,187.371 206.141,188.871 204.5,190C 205.126,190.75 205.626,191.584 206,192.5C 207.039,191.29 208.206,190.29 209.5,189.5C 207.57,193.1 204.903,196.1 201.5,198.5C 201.53,197.503 201.03,196.836 200,196.5C 198.56,197.148 197.06,197.481 195.5,197.5C 199.167,193.167 203.167,189.167 207.5,185.5 Z"/></g>
<g><path style="opacity:0.962" fill="#126d84" d="M 236.5,184.5 C 235.952,186.394 234.952,188.06 233.5,189.5C 233.855,190.522 234.522,191.189 235.5,191.5C 234.219,194.447 232.219,196.781 229.5,198.5C 229.489,196.314 228.489,195.481 226.5,196C 223.629,198.703 220.962,201.536 218.5,204.5C 218.167,204.5 217.833,204.5 217.5,204.5C 223.109,197.222 229.442,190.556 236.5,184.5 Z"/></g>
<g><path style="opacity:0.353" fill="#0a6352" d="M 300.5,176.5 C 300.443,177.609 300.11,178.609 299.5,179.5C 294.167,184.5 288.833,189.5 283.5,194.5C 288.441,187.89 294.108,181.89 300.5,176.5 Z"/></g>
<g><path style="opacity:0.922" fill="#0e948a" d="M 124.5,178.5 C 124.944,179.819 126.277,180.819 128.5,181.5C 122.139,188.193 115.806,194.86 109.5,201.5C 108.952,199.468 107.619,198.468 105.5,198.5C 111.861,191.807 118.194,185.14 124.5,178.5 Z"/></g>
<g><path style="opacity:0.991" fill="#2050c0" d="M 149.5,205.5 C 146.576,210.553 142.576,211.553 137.5,208.5C 136.575,207.643 135.908,206.643 135.5,205.5C 135.401,202.763 135.735,200.096 136.5,197.5C 136.5,196.833 136.833,196.5 137.5,196.5C 141.446,195.473 145.446,195.306 149.5,196C 149.219,199.017 149.219,202.183 149.5,205.5 Z"/></g>
<g><path style="opacity:0.924" fill="#157ea6" d="M 229.5,198.5 C 227.167,201.5 224.5,204.167 221.5,206.5C 221.027,205.094 220.027,204.427 218.5,204.5C 220.962,201.536 223.629,198.703 226.5,196C 228.489,195.481 229.489,196.314 229.5,198.5 Z"/></g>
<g><path style="opacity:0.885" fill="#0d9385" d="M 123.5,198.5 C 125.781,198.077 127.448,198.744 128.5,200.5C 126.167,203.5 123.5,206.167 120.5,208.5C 119.952,206.468 118.619,205.468 116.5,205.5C 118.5,202.833 120.833,200.5 123.5,198.5 Z"/></g>
<g><path style="opacity:0.369" fill="#13265b" d="M 136.5,197.5 C 135.735,200.096 135.401,202.763 135.5,205.5C 134.848,204.551 134.514,203.385 134.5,202C 134.307,199.992 134.974,198.492 136.5,197.5 Z"/></g>
<g><path style="opacity:1" fill="#1484a4" d="M 249.5,196.5 C 251.5,196.5 252.5,197.5 252.5,199.5C 249.157,203.098 247.657,207.431 248,212.5C 242.687,218.03 237.687,217.697 233,211.5C 232.219,202.62 236.386,198.787 245.5,200C 246.705,198.624 248.038,197.458 249.5,196.5 Z"/></g>
<g><path style="opacity:0.92" fill="#109093" d="M 283.5,194.5 C 282.952,196.394 281.952,198.06 280.5,199.5C 280.855,200.522 281.522,201.189 282.5,201.5C 276.869,208.798 270.536,215.465 263.5,221.5C 262.527,221.013 261.527,220.513 260.5,220C 262.79,218.223 264.457,216.056 265.5,213.5C 269.566,210.437 272.899,206.771 275.5,202.5C 277.833,199.5 280.5,196.833 283.5,194.5 Z"/></g>
<g><path style="opacity:0.976" fill="#0aaf87" d="M 105.5,198.5 C 107.619,198.468 108.952,199.468 109.5,201.5C 107.038,204.464 104.371,207.297 101.5,210C 104.833,210.667 108.167,210.667 111.5,210C 113.037,208.293 114.704,206.793 116.5,205.5C 118.619,205.468 119.952,206.468 120.5,208.5C 118.706,210.797 116.706,212.963 114.5,215C 108.167,215.333 101.833,215.667 95.5,216C 93.5998,218.335 91.5998,220.502 89.5,222.5C 88.4479,220.744 86.7812,220.077 84.5,220.5C 91.5277,213.14 98.5277,205.807 105.5,198.5 Z"/></g>
<g><path style="opacity:1" fill="#195ea3" d="M 201.5,198.5 C 198.371,202.131 195.037,205.631 191.5,209C 194.144,212.611 194.144,216.111 191.5,219.5C 190.681,215.147 188.348,211.647 184.5,209C 182.803,208.616 181.137,208.782 179.5,209.5C 179.953,208.542 180.619,207.708 181.5,207C 187.622,206.056 192.288,202.889 195.5,197.5C 197.06,197.481 198.56,197.148 200,196.5C 201.03,196.836 201.53,197.503 201.5,198.5 Z"/></g>
<g><path style="opacity:1" fill="#1c5db4" d="M 191.5,219.5 C 186.828,223.648 182.328,223.315 178,218.5C 177.333,215.833 177.333,213.167 178,210.5C 178.383,209.944 178.883,209.611 179.5,209.5C 181.137,208.782 182.803,208.616 184.5,209C 188.348,211.647 190.681,215.147 191.5,219.5 Z"/></g>
<g><path style="opacity:1" fill="#176fa7" d="M 217.5,204.5 C 217.833,204.5 218.167,204.5 218.5,204.5C 220.027,204.427 221.027,205.094 221.5,206.5C 220.04,208.463 218.373,210.296 216.5,212C 217.983,215.438 217.649,218.605 215.5,221.5C 213.137,217.295 209.804,213.961 205.5,211.5C 202.907,213.071 201.907,215.404 202.5,218.5C 200.944,212.493 203.444,208.826 210,207.5C 211.107,207.585 212.107,207.919 213,208.5C 214.371,206.959 215.871,205.625 217.5,204.5 Z"/></g>
<g><path style="opacity:0.333" fill="#0c5154" d="M 275.5,202.5 C 272.899,206.771 269.566,210.437 265.5,213.5C 268.101,209.229 271.434,205.563 275.5,202.5 Z"/></g>
<g><path style="opacity:0.997" fill="#196bb0" d="M 215.5,221.5 C 210.034,225.682 205.701,224.682 202.5,218.5C 201.907,215.404 202.907,213.071 205.5,211.5C 209.804,213.961 213.137,217.295 215.5,221.5 Z"/></g>
<g><path style="opacity:0.97" fill="#12677e" d="M 265.5,213.5 C 264.457,216.056 262.79,218.223 260.5,220C 261.527,220.513 262.527,221.013 263.5,221.5C 262.92,223.749 261.587,225.415 259.5,226.5C 259.489,224.314 258.489,223.481 256.5,224C 253.629,226.703 250.962,229.536 248.5,232.5C 247.833,232.833 247.167,233.167 246.5,233.5C 252.109,226.222 258.442,219.556 265.5,213.5 Z"/></g>
<g><path style="opacity:0.988" fill="#252fc2" d="M 165.5,275.5 C 162.763,275.599 160.096,275.265 157.5,274.5C 155.266,273.181 153.932,271.181 153.5,268.5C 154.428,267.232 154.595,265.899 154,264.5C 150.629,261.297 147.462,257.964 144.5,254.5C 141.769,250.766 138.436,247.766 134.5,245.5C 131.167,242.833 128.167,239.833 125.5,236.5C 124.375,234.871 123.041,233.371 121.5,232C 120.563,231.308 119.897,231.475 119.5,232.5C 118.5,234.167 117.167,235.5 115.5,236.5C 115.854,233.506 114.854,232.506 112.5,233.5C 114.23,229.253 117.23,226.753 121.5,226C 133.763,237.719 145.93,249.552 158,261.5C 168.507,259.503 172.007,263.503 168.5,273.5C 167.643,274.425 166.643,275.092 165.5,275.5 Z"/></g>
<g><path style="opacity:0.911" fill="#157da4" d="M 259.5,226.5 C 256.833,229.833 253.833,232.833 250.5,235.5C 250.573,233.973 249.906,232.973 248.5,232.5C 250.962,229.536 253.629,226.703 256.5,224C 258.489,223.481 259.489,224.314 259.5,226.5 Z"/></g>
<g><path style="opacity:0.486" fill="#15195a" d="M 119.5,232.5 C 119.897,231.475 120.563,231.308 121.5,232C 123.041,233.371 124.375,234.871 125.5,236.5C 123.246,235.585 121.246,234.252 119.5,232.5 Z"/></g>
<g><path style="opacity:0.987" fill="#2720be" d="M 115.5,236.5 C 115.167,237.5 114.5,238.167 113.5,238.5C 112.094,238.973 111.427,239.973 111.5,241.5C 107.435,245.559 103.768,249.893 100.5,254.5C 98.8184,253.173 97.4851,251.506 96.5,249.5C 101.5,243.833 106.833,238.5 112.5,233.5C 114.854,232.506 115.854,233.506 115.5,236.5 Z"/></g>
<g><path style="opacity:0.02" fill="#121348" d="M 113.5,238.5 C 113.573,240.027 112.906,241.027 111.5,241.5C 111.427,239.973 112.094,238.973 113.5,238.5 Z"/></g>
<g><path style="opacity:0.93" fill="#196caa" d="M 248.5,232.5 C 249.906,232.973 250.573,233.973 250.5,235.5C 246.539,241.129 241.873,246.129 236.5,250.5C 235.833,249.5 235.167,248.5 234.5,247.5C 238.897,243.108 242.897,238.442 246.5,233.5C 247.167,233.167 247.833,232.833 248.5,232.5 Z"/></g>
<g><path style="opacity:0.616" fill="#161a5e" d="M 134.5,245.5 C 138.436,247.766 141.769,250.766 144.5,254.5C 140.564,252.234 137.231,249.234 134.5,245.5 Z"/></g>
<g><path style="opacity:0.416" fill="#124068" d="M 246.5,233.5 C 242.897,238.442 238.897,243.108 234.5,247.5C 232.167,249.167 230.167,251.167 228.5,253.5C 228.167,253.5 227.833,253.5 227.5,253.5C 233.109,246.222 239.442,239.556 246.5,233.5 Z"/></g>
<g><path style="opacity:0.99" fill="#2b16ce" d="M 96.5,249.5 C 97.4851,251.506 98.8184,253.173 100.5,254.5C 100.833,254.5 101.167,254.5 101.5,254.5C 103.833,258.833 107.167,262.167 111.5,264.5C 114.5,267.167 117.5,269.833 120.5,272.5C 122.833,276.833 126.167,280.167 130.5,282.5C 133.833,285.5 137.167,288.5 140.5,291.5C 142.5,295.5 145.5,298.5 149.5,300.5C 152.833,303.5 156.167,306.5 159.5,309.5C 160.833,312.833 163.167,315.167 166.5,316.5C 167.833,315.5 169.167,314.5 170.5,313.5C 175.5,308.833 180.5,304.167 185.5,299.5C 186.234,300.708 186.567,302.041 186.5,303.5C 179.838,310.329 173.338,317.329 167,324.5C 142.167,301 117.333,277.5 92.5,254C 93.3281,252.008 94.6614,250.508 96.5,249.5 Z"/></g>
<g><path style="opacity:0.946" fill="#1c5fb6" d="M 234.5,247.5 C 235.167,248.5 235.833,249.5 236.5,250.5C 231.472,255.86 226.472,261.193 221.5,266.5C 221.567,265.041 221.234,263.708 220.5,262.5C 223.167,259.5 225.833,256.5 228.5,253.5C 230.167,251.167 232.167,249.167 234.5,247.5 Z"/></g>
<g><path style="opacity:0.443" fill="#180f64" d="M 101.5,254.5 C 105.167,257.5 108.5,260.833 111.5,264.5C 107.167,262.167 103.833,258.833 101.5,254.5 Z"/></g>
<g><path style="opacity:0.935" fill="#204dbd" d="M 220.5,262.5 C 221.234,263.708 221.567,265.041 221.5,266.5C 215.805,272.526 210.139,278.526 204.5,284.5C 204.567,283.041 204.234,281.708 203.5,280.5C 208.463,273.869 214.13,267.869 220.5,262.5 Z"/></g>
<g><path style="opacity:0.424" fill="#180f61" d="M 120.5,272.5 C 124.167,275.5 127.5,278.833 130.5,282.5C 126.167,280.167 122.833,276.833 120.5,272.5 Z"/></g>
<g><path style="opacity:0.204" fill="#161962" d="M 157.5,274.5 C 160.096,275.265 162.763,275.599 165.5,275.5C 164.551,276.152 163.385,276.486 162,276.5C 159.992,276.693 158.492,276.026 157.5,274.5 Z"/></g>
<g><path style="opacity:0.963" fill="#2537c8" d="M 203.5,280.5 C 204.234,281.708 204.567,283.041 204.5,284.5C 198.472,290.86 192.472,297.193 186.5,303.5C 186.567,302.041 186.234,300.708 185.5,299.5C 187.167,297.5 188.833,295.5 190.5,293.5C 194.5,288.833 198.833,284.5 203.5,280.5 Z"/></g>
<g><path style="opacity:0.463" fill="#17296f" d="M 227.5,253.5 C 227.833,253.5 228.167,253.5 228.5,253.5C 225.833,256.5 223.167,259.5 220.5,262.5C 214.13,267.869 208.463,273.869 203.5,280.5C 198.833,284.5 194.5,288.833 190.5,293.5C 190.167,293.5 189.833,293.5 189.5,293.5C 189.369,292.761 189.536,292.094 190,291.5C 202.287,278.565 214.787,265.898 227.5,253.5 Z"/></g>
<g><path style="opacity:0.443" fill="#180f62" d="M 140.5,291.5 C 143.833,294.167 146.833,297.167 149.5,300.5C 145.5,298.5 142.5,295.5 140.5,291.5 Z"/></g>
<g><path style="opacity:0.424" fill="#160f5b" d="M 159.5,309.5 C 162.167,311.5 164.5,313.833 166.5,316.5C 163.167,315.167 160.833,312.833 159.5,309.5 Z"/></g>
<g><path style="opacity:0.455" fill="#1a1772" d="M 189.5,293.5 C 189.833,293.5 190.167,293.5 190.5,293.5C 188.833,295.5 187.167,297.5 185.5,299.5C 180.5,304.167 175.5,308.833 170.5,313.5C 176.109,306.222 182.442,299.556 189.5,293.5 Z"/></g>
</svg>
